<svg xmlns="http://www.w3.org/2000/svg" viewBox="0 0 500 500"><g id="freepik--background-simple--inject-5"><path d="M104.69,145.88c-15.32,40.81-2.09,95.9,21.58,139,61,111.9,209.44,48.63,206.88-2.19,3.48-48.48-40.12-62.88-54.91-90.06C195.42,39.21,117,111.47,104.69,145.88Z" style="fill:#407BFF"></path><path d="M104.69,145.88c-15.32,40.81-2.09,95.9,21.58,139,61,111.9,209.44,48.63,206.88-2.19,3.48-48.48-40.12-62.88-54.91-90.06C195.42,39.21,117,111.47,104.69,145.88Z" style="fill:#fff;opacity:0.9"></path></g><g id="freepik--404--inject-5"><path d="M147.68,287.64H86.83V260.17l60.85-72.34H176.8v73.9h15.09v25.91H176.8v22.48H147.68Zm0-25.91V223.89l-32.16,37.84Z" style="fill:#407BFF"></path><path d="M202.3,249.51q0-34.29,12.34-48t37.61-13.7q12.13,0,19.93,3a36.79,36.79,0,0,1,12.71,7.79,41.59,41.59,0,0,1,7.75,10.09,52.38,52.38,0,0,1,4.55,12.34,115.36,115.36,0,0,1,3.36,28q0,32.72-11.07,47.89t-38.13,15.18q-15.18,0-24.53-4.84a39.76,39.76,0,0,1-15.33-14.19q-4.35-6.64-6.77-18.17A124.33,124.33,0,0,1,202.3,249.51Zm33.14.08q0,23,4.05,31.37t11.77,8.41a12.34,12.34,0,0,0,8.82-3.57q3.74-3.57,5.5-11.28t1.76-24q0-23.94-4.06-32.19t-12.18-8.24q-8.28,0-12,8.41T235.44,249.59Z" style="fill:#407BFF"></path><path d="M371.74,287.64H310.89V260.17l60.85-72.34h29.12v73.9H416v25.91H400.86v22.48H371.74Zm0-25.91V223.89l-32.15,37.84Z" style="fill:#407BFF"></path></g><g id="freepik--Planets--inject-5"><g style="opacity:0.30000000000000004"><path d="M201,145.62a1.87,1.87,0,1,1-1.86-1.87A1.86,1.86,0,0,1,201,145.62Z" style="fill:#407BFF"></path><circle cx="72.97" cy="216.13" r="1.32" style="fill:#407BFF"></circle><circle cx="291.05" cy="408.33" r="1.89" style="fill:#407BFF"></circle><circle cx="336.5" cy="332" r="1.32" style="fill:#407BFF"></circle><path d="M424.17,95.62a1.32,1.32,0,1,1-1.32-1.32A1.32,1.32,0,0,1,424.17,95.62Z" style="fill:#407BFF"></path><path d="M172.75,69a1.32,1.32,0,1,1-1.32-1.32A1.33,1.33,0,0,1,172.75,69Z" style="fill:#407BFF"></path><circle cx="277.7" cy="136.94" r="1.32" style="fill:#407BFF"></circle></g><circle cx="141.23" cy="116.36" r="21.91" style="fill:#407BFF"></circle><circle cx="141.23" cy="116.36" r="21.91" style="fill:#fff;opacity:0.7000000000000001"></circle><path d="M133.68,99.83A21.84,21.84,0,0,0,125,101.6a21.92,21.92,0,0,0,24.87,34.89h0a21.92,21.92,0,0,0-16.23-36.65Z" style="fill:#407BFF;opacity:0.2"></path><path d="M131.5,105.62a2,2,0,1,1-2-2A2,2,0,0,1,131.5,105.62Z" style="fill:#407BFF;opacity:0.2"></path><path d="M155.06,103.62a2,2,0,1,1-2-2A2,2,0,0,1,155.06,103.62Z" style="fill:#407BFF;opacity:0.2"></path><path d="M151.06,117.9a3.28,3.28,0,1,1-3.28-3.28A3.28,3.28,0,0,1,151.06,117.9Z" style="fill:#407BFF;opacity:0.2"></path><path d="M140.64,127.25a4.38,4.38,0,1,1-4.38-4.38A4.38,4.38,0,0,1,140.64,127.25Z" style="fill:#407BFF;opacity:0.2"></path><circle cx="382.2" cy="376.25" r="19.23" transform="translate(-71.8 661.78) rotate(-76.72)" style="fill:#407BFF"></circle><circle cx="382.2" cy="376.25" r="19.23" transform="translate(-71.8 661.78) rotate(-76.72)" style="fill:#fff;opacity:0.30000000000000004"></circle><path d="M394.33,361.34a19.22,19.22,0,0,0-17.67,33.32,19,19,0,0,0,5.53.82,19.23,19.23,0,0,0,12.14-34.14Z" style="fill:#407BFF;opacity:0.4"></path><path d="M363.83,382c-20.53,9.66-5.22,17.11,23.71,6.71,26.79-9.63,37-21.77,13-18C401.83,375.76,368.28,388.83,363.83,382Z" style="fill:#407BFF"></path></g></svg>